<svg xmlns="http://www.w3.org/2000/svg" viewBox="0 0 253.04 208.02"><defs><style>.cls-1{fill:#7f543e;}.cls-1,.cls-13,.cls-3,.cls-6{stroke:#1d1d1b;}.cls-1,.cls-3,.cls-5,.cls-6{stroke-miterlimit:10;}.cls-2{fill:#6b4638;}.cls-3,.cls-6{fill:#84847e;}.cls-13,.cls-3,.cls-5,.cls-6{stroke-width:2px;}.cls-4{fill:#262623;}.cls-13,.cls-5{fill:none;}.cls-5{stroke:#262623;}.cls-13,.cls-5,.cls-6{stroke-linecap:round;}.cls-7{fill:#4c4c47;}.cls-8{fill:#d795b0;}.cls-9{fill:#d893ae;}.cls-10{font-size:72px;font-family:IrrationalRegular, Irrational;}.cls-10,.cls-14{fill:#1d1d1b;}.cls-11{letter-spacing:-0.01em;}.cls-12{letter-spacing:-0.01em;}.cls-13{stroke-linejoin:round;}.cls-14{font-size:18px;font-family:Cookies;}</style></defs><g id="Layer_2" data-name="Layer 2"><g id="box"><g id="box_group"><g id="box_back"><path class="cls-1" d="M209.69,92.3,2.8,91.7,48.37,75l119.09.38Z"/><path class="cls-2" d="M166.64,91.68,48.43,91.34l.09-15.75,118.07.26Z"/></g><g id="cat"><path class="cls-3" d="M137.59,35.61c-2.42-4.31-6.06-10.24-6.35-10.54L119.79,13.46a1.14,1.14,0,0,0-1.65,0L107.05,23.64A101.32,101.32,0,0,0,96.38,23c-2.54,0-4.95.11-7.29.3L77.39,12.58a1.16,1.16,0,0,0-1.65,0L64.29,24.2c-.32.32-4.39,7-6.79,11.3-17.41,15-22.1,41.17-23.62,66-.11,36.84,27.22,58.12,63.25,58.12s62.62-21.23,62.41-58.12C157.9,74.19,154.08,49.71,137.59,35.61Z"/><g id="eyes"><ellipse class="cls-4" cx="79.05" cy="43.69" rx="4.01" ry="4.07"/><ellipse class="cls-4" cx="116.02" cy="43.72" rx="4.01" ry="4.07"/></g><g id="mouth"><path class="cls-5" d="M89.11,45.84c2.32,4.5,7.53,4.28,8.14-4.14"/><path class="cls-5" d="M105.34,45.83c-2.33,4.5-7.54,4.28-8.15-4.14"/></g><path id="arm_l" class="cls-6" d="M69.64,66C75.8,71.2,81.41,81,77.51,85.4c-3.25,3.66-9.6,4.52-12.92,2-2.45-1.88-6.27-6.32-3.54-13.83.76-2.08.36-4.11.36-5.79"/><g id="head_stripes"><path class="cls-7" d="M91.42,32.19h0a1.37,1.37,0,0,1-1.36-1.39V24.23l2.8-.14v6.65A1.44,1.44,0,0,1,91.42,32.19Z"/><path class="cls-7" d="M97.7,32.22h0a1.37,1.37,0,0,1-1.36-1.39l0-6.83,2.77,0v6.73A1.44,1.44,0,0,1,97.7,32.22Z"/><path class="cls-7" d="M103.57,32.26h0a1.38,1.38,0,0,1-1.37-1.39l0-6.73,2.83.23V30.8A1.44,1.44,0,0,1,103.57,32.26Z"/></g><path id="arm_r" class="cls-6" d="M123,62.36c5.13-6.22,14.82-11.88,19.13-7.91,3.6,3.31,4.42,9.76,1.9,13.12-1.87,2.48-6.26,6.33-13.65,3.53-2-.77-4-.38-5.7-.38"/><g id="blush"><ellipse class="cls-8" cx="65.5" cy="46.79" rx="3.77" ry="2.21"/><ellipse class="cls-9" cx="127.91" cy="47.31" rx="3.77" ry="2.21"/></g></g><g id="box_front"><rect class="cls-1" x="1.17" y="92.26" width="210.86" height="115.26"/><text class="cls-10" transform="translate(33.45 166.65)">Klikni <tspan class="cls-11" x="97.7" y="0">m</tspan><tspan class="cls-12" x="121.39" y="0">e</tspan><tspan x="136.29" y="0">!</tspan></text></g></g><g id="textbox"><path class="cls-13" d="M227.37,1H180c-13.63,0-24.68,10.81-24.68,24.14h0a23.9,23.9,0,0,0,10.23,19.55l-10.11,4.6H178.8v0l1.2,0h47.37C241,49.27,252,38.47,252,25.14h0C252,11.81,241,1,227.37,1Z"/><text class="cls-14" transform="translate(174.41 30.78)">Heloo</text></g></g></g></svg>